<svg width="65" height="62" viewBox="0 0 65 62" fill="none" xmlns="http://www.w3.org/2000/svg">
<path fill-rule="evenodd" clip-rule="evenodd" d="M41.0084 17.9567C40.7186 15.4967 39.7963 12.9952 38.4465 10.7287C36.909 8.14568 34.8284 5.89199 32.5079 4.36981C30.0402 5.94235 27.9786 8.08572 26.4886 10.5792C25.1515 12.8177 24.2798 15.3305 23.9948 17.9567C27.1141 17.6905 30.0639 18.932 32.4992 22.8982C34.9361 18.9312 37.8875 17.6905 41.0084 17.9567ZM40.3346 54.1525H24.6646C23.8087 54.1525 23.1097 54.8595 23.1097 55.7236C23.1097 56.5874 23.8087 57.2944 24.6646 57.2944H40.3346C41.1905 57.2944 41.8903 56.5874 41.8903 55.7236C41.8903 54.8595 41.1905 54.1525 40.3346 54.1525ZM44.8014 58.8347H20.1978C19.3428 58.8347 18.6429 59.5411 18.6429 60.4055C18.6429 61.2693 19.3428 61.9766 20.1978 61.9766H44.8014C45.6565 61.9766 46.3571 61.2696 46.3571 60.4058C46.3571 59.5414 45.6565 58.8347 44.8014 58.8347ZM0 41.6166C0.0110838 41.4641 0.0522382 41.3108 0.124283 41.1649L4.55621 32.2688C4.85151 31.6769 5.56643 31.4393 6.15228 31.7375C6.38821 31.8581 6.56714 32.0473 6.67798 32.2688C8.14737 35.2374 9.6326 38.2001 11.1099 41.1649C11.182 41.3108 11.2231 41.4635 11.2334 41.6166C11.2334 44.7491 8.71895 47.2887 5.61708 47.2887C2.51441 47.2887 0 44.7491 0 41.6166ZM8.67462 41.6166L5.61708 35.4797L2.55957 41.6166H8.67462ZM53.7658 41.6166C53.7769 41.4641 53.818 41.3108 53.8909 41.1649L58.322 32.2688C58.6173 31.6769 59.3322 31.4393 59.9181 31.7375C60.1548 31.8581 60.3329 32.0473 60.4446 32.2688C61.9148 35.2374 63.3984 38.2001 64.8757 41.1649C64.9485 41.3108 64.9889 41.4635 65 41.6166C65 44.7491 62.4856 47.2887 59.3829 47.2887C56.281 47.2887 53.7658 44.7491 53.7658 41.6166ZM62.4404 41.6166L59.3829 35.4797L56.3262 41.6166H62.4404ZM20.8264 18.681C21.0228 15.1969 22.0876 11.8704 23.8269 8.95953C25.7167 5.79685 28.4132 3.11066 31.6639 1.23512C32.135 0.922529 32.7597 0.880154 33.283 1.18075C36.3714 2.95396 39.1384 5.81204 41.1073 9.12022C42.8657 12.0734 44.0018 15.4104 44.1791 18.6834C44.6035 18.8337 45.0286 19.0048 45.4538 19.1919C48.2342 20.4158 50.9458 22.3825 53.3929 24.1581C56.4346 26.3654 58.9744 28.208 59.5523 27.5931C59.7479 27.3852 59.8452 27.1375 59.8729 26.8927C59.4605 27.1003 58.9609 27.1203 58.5128 26.9042C57.7409 26.5317 57.4147 25.5972 57.7845 24.8177C58.3379 23.6481 59.1525 23.1324 60.0218 23.0836C60.7098 23.0453 61.336 23.3171 61.8451 23.8088C62.2132 24.1645 62.5188 24.6514 62.7183 25.2062C63.1917 26.5245 63.1078 28.3623 61.8007 29.7532C59.3647 32.3456 55.8242 29.7763 51.5815 26.698C49.2674 25.0199 46.7039 23.1596 44.2148 22.0643C40.4273 20.3975 36.6311 20.6421 33.9219 26.9223L33.9156 26.9367L33.914 26.9414L33.9005 26.9692L33.8989 26.973L33.8879 26.9954L33.8823 27.0064L33.8704 27.0313L33.8657 27.0395L33.8506 27.066L33.8475 27.0726L33.8316 27.1003L33.8285 27.1047L33.8269 27.1072C33.8008 27.1503 33.7746 27.1912 33.7453 27.2305L33.7224 27.2608L33.6994 27.2905L33.6749 27.3196L33.6733 27.3214L33.6503 27.348L33.6479 27.3498L33.625 27.3761L33.6226 27.3783L33.5981 27.4029L33.5957 27.4055L33.5712 27.4301L33.5688 27.4323L33.5427 27.4561L33.5411 27.4579L33.515 27.4816L33.5126 27.4832L33.4841 27.5072L33.4556 27.5303L33.4548 27.531L33.4247 27.5541C33.3859 27.5834 33.3447 27.6109 33.3028 27.6365L33.3004 27.6381L33.2964 27.6409L33.2679 27.6568L33.2624 27.6609L33.2355 27.6756L33.2268 27.6799L33.203 27.6927L33.1919 27.6981L33.1698 27.7096L33.1658 27.7112L33.1381 27.7236L33.1333 27.7259L33.1199 27.7324L33.07 27.7533L33.0669 27.7539L33.0455 27.7627L33.032 27.768L33.0233 27.7708L32.9995 27.7795L32.9932 27.7814C32.9718 27.7893 32.9481 27.7961 32.9259 27.8024L32.8958 27.8111L32.8903 27.8126C32.8293 27.8286 32.7684 27.8408 32.7074 27.8486L32.7066 27.8492C32.6694 27.8542 32.6322 27.858 32.595 27.8598L32.5934 27.8604L32.5578 27.862H32.5554L32.5198 27.8629H32.5174H32.4826H32.4794L32.4446 27.862H32.4422L32.4066 27.8604L32.405 27.8598C32.367 27.858 32.3298 27.8542 32.2926 27.8492C32.2316 27.8414 32.1699 27.8286 32.1097 27.8126L32.1041 27.8111L32.0741 27.8024C32.0503 27.7961 32.0281 27.7893 32.0052 27.7814L32.0004 27.7795L31.9767 27.7708L31.9672 27.768L31.9545 27.7627L31.9323 27.7539L31.93 27.7533C31.9086 27.7446 31.8872 27.7356 31.865 27.7259L31.8611 27.7236L31.8342 27.7112L31.8302 27.7096L31.8072 27.6981L31.797 27.6927L31.7724 27.6799L31.7637 27.6756L31.7376 27.6609L31.7312 27.6568L31.7043 27.6409L31.6996 27.6381L31.6972 27.6365C31.6545 27.6109 31.6141 27.5837 31.5745 27.5541L31.5444 27.531L31.5151 27.5072L31.4866 27.4832L31.485 27.4816L31.4589 27.4579L31.4566 27.4561L31.4312 27.4323L31.4288 27.4301L31.4043 27.4055L31.4019 27.4029L31.3774 27.3783L31.375 27.3761L31.3512 27.3498L31.3497 27.348L31.3267 27.3214L31.3243 27.3196L31.3006 27.2905L31.2776 27.2615L31.2768 27.2608L31.2546 27.2305C31.2261 27.1912 31.1984 27.1499 31.1723 27.1072L31.1715 27.1047L31.1684 27.1003L31.1525 27.0726L31.1486 27.066L31.1343 27.0395L31.1295 27.0313L31.1169 27.0064L31.1113 26.9954L31.1003 26.973L31.0987 26.9692L31.086 26.9414L31.0844 26.9367L31.0781 26.9223C28.3681 20.6421 24.5719 20.3975 20.786 22.0643C18.2961 23.1596 15.7318 25.0199 13.4185 26.698C9.17576 29.7763 5.63453 32.3456 3.19926 29.7532C1.89138 28.3623 1.80743 26.5245 2.28166 25.2062C2.48117 24.6514 2.78758 24.1645 3.15492 23.8088C3.6624 23.3171 4.29022 23.0453 4.979 23.0836C5.8467 23.1324 6.66215 23.6481 7.21555 24.8177C7.58448 25.5972 7.2583 26.5317 6.4864 26.9042C6.0383 27.1203 5.53951 27.0997 5.12625 26.8924C5.15395 27.1375 5.25132 27.3848 5.44687 27.5931C6.02481 28.208 8.56458 26.3654 11.6071 24.1581C14.0534 22.3825 16.765 20.4158 19.5462 19.1919C19.973 19.004 20.3997 18.8329 20.8264 18.681ZM33.1333 27.7259C33.1128 27.7356 33.0914 27.7446 33.07 27.7533L33.1333 27.7259ZM32.9932 27.7814C32.9718 27.789 32.9497 27.7958 32.9259 27.8024L32.9932 27.7814ZM31.93 27.7533L31.8801 27.7324L31.865 27.7259L31.93 27.7533ZM38.3855 48.5934C40.8683 47.5719 43.0335 45.9221 44.6882 43.8387C46.8297 41.1434 48.1115 37.7157 48.1115 33.9814C48.1115 33.0863 48.0418 32.2253 47.9072 31.4037C47.8194 30.86 47.7022 30.3229 47.5581 29.7951C47.3515 29.7654 47.1488 29.7401 46.9485 29.7211C46.4758 29.6743 45.9605 29.6505 45.4039 29.6505C43.1373 29.6505 40.9941 30.1302 39.0695 30.9934C37.4742 31.7088 36.0183 32.6882 34.7563 33.8767C35.852 35.3108 36.749 36.9097 37.4053 38.6307C38.2121 40.7483 38.6547 43.0365 38.6547 45.4146C38.6547 46.4268 38.5707 47.4414 38.4092 48.4494L38.3855 48.5934ZM32.6686 36.2836C31.9173 37.3488 31.295 38.5108 30.824 39.7472C30.1574 41.4934 29.7932 43.4041 29.7932 45.4146C29.7932 46.3096 29.8621 47.1706 29.9958 47.9923C30.0845 48.5359 30.2017 49.0727 30.3458 49.6012L30.3545 49.6024L30.3648 49.604L30.3743 49.6049L30.3782 49.6055L30.3846 49.6065L30.3941 49.6078L30.4012 49.6089H30.4036L30.4131 49.6105L30.4234 49.6117H30.4249L30.4321 49.613L30.4424 49.6143L30.4487 49.6155H30.4519L30.4614 49.6171L30.4709 49.6186L30.4812 49.6196L30.4899 49.6212L30.4946 49.6214L30.4994 49.6227L30.5097 49.6237L30.5184 49.6249L30.5279 49.6261L30.5389 49.6274L30.5413 49.6277L30.5485 49.6286L30.5572 49.6296L30.5651 49.6305H30.5667L30.5769 49.6321L30.5865 49.6333L30.588 49.6337L30.596 49.6346L30.6055 49.6358L30.611 49.6365L30.6149 49.6371L30.6245 49.638L30.634 49.6396L30.6442 49.6408L30.653 49.642H30.6569L30.6625 49.6427L30.672 49.644L30.6807 49.6452L30.691 49.6461L30.7005 49.6474L30.7036 49.6477L30.71 49.6486L30.7195 49.6496L30.7266 49.6508H30.729L30.7385 49.6517L30.7488 49.6527L30.7575 49.654L30.767 49.6552L30.7733 49.6558L30.7765 49.6564L30.786 49.6577L30.7955 49.6583L30.805 49.6592L30.8145 49.6605L30.8184 49.6608L30.824 49.6614L30.8335 49.662L30.8414 49.6633L30.8517 49.6646L30.862 49.6655L30.8644 49.6658L30.8715 49.6661L30.8802 49.6674L30.8873 49.6679L30.8897 49.6683L30.8992 49.6695L30.9079 49.6702H30.9095L30.9182 49.6714L30.9269 49.6723L30.9332 49.673H30.9364L30.9459 49.6743L30.9554 49.6751C31.4288 49.7217 31.9434 49.7457 32.5 49.7457C33.0985 49.7457 33.6693 49.7146 34.2109 49.6558L34.2227 49.6543L34.2354 49.6527H34.2378L34.2481 49.6517L34.2607 49.6502L34.2655 49.6496L34.2742 49.6486L34.2869 49.6474L34.2924 49.6471L34.2995 49.6458L34.3122 49.6446L34.3193 49.6436L34.3249 49.6433L34.3375 49.6414L34.3462 49.6405L34.3494 49.6399L34.3621 49.6386L34.3732 49.6374L34.3747 49.6371L34.3874 49.6355L34.4001 49.6343L34.4127 49.6324L34.4254 49.6305H34.4278L34.4381 49.6296L34.45 49.6277L34.4547 49.6274L34.4626 49.6261L34.4753 49.6249L34.4824 49.6237L34.488 49.623L34.5006 49.6214L34.5093 49.6205L34.5125 49.6199L34.5252 49.6183L34.5354 49.6171L34.5378 49.6165L34.5505 49.6155L34.5624 49.6133L34.575 49.6117L34.5877 49.6102L34.5893 49.6096L34.6004 49.6083L34.613 49.6065L34.6162 49.6062L34.6249 49.6049L34.6376 49.6037L34.6431 49.6027L34.6502 49.6014L34.6621 49.5999L34.67 49.5993L34.6748 49.5983L34.6875 49.5965L34.6969 49.5955L34.7001 49.5949L34.712 49.5934L34.7231 49.5918L34.7247 49.5912L34.7365 49.5896L34.7484 49.5878L34.7619 49.5862L34.7738 49.5843L34.7761 49.584L34.7856 49.5827L34.7983 49.5802L34.8031 49.5799L34.8102 49.579L34.8229 49.5771L34.8292 49.5758L34.8355 49.5755L34.8474 49.5734L34.8553 49.5721L34.86 49.5715L34.8727 49.5696L34.8822 49.5683L34.8846 49.5678L34.8973 49.5659L34.9084 49.564L34.921 49.5627L34.9329 49.5603H34.9353L34.9455 49.558L34.9582 49.5562L34.9614 49.5559L34.9701 49.5547L34.9828 49.5524L34.9875 49.5518L34.9946 49.5506L35.0065 49.549C35.1466 49.0281 35.2606 48.4972 35.3462 47.9589C35.476 47.1506 35.5433 46.3012 35.5433 45.4146C35.5433 43.4041 35.1783 41.4934 34.5125 39.7472C34.0407 38.5108 33.4192 37.3488 32.6686 36.2836ZM47.1068 45.8031C44.4879 49.0999 40.7907 51.4921 36.5535 52.437C35.8798 52.5866 35.2068 52.7 34.5386 52.7731C33.849 52.849 33.1682 52.8877 32.5 52.8877C31.9157 52.8877 31.3029 52.8552 30.664 52.7925C30.0204 52.7291 29.4139 52.6392 28.8447 52.5258C24.5141 51.6589 20.7188 49.2816 18.0222 45.9608C15.3692 42.6942 13.7771 38.5223 13.7771 33.9814C13.7771 32.9692 13.8611 31.9546 14.0226 30.9462C14.1849 29.93 14.4271 28.9416 14.7422 27.9897C14.9108 27.4869 15.3273 27.0816 15.8791 26.9589C16.5528 26.809 17.225 26.6956 17.8924 26.6229C18.5827 26.5469 19.2636 26.5085 19.9318 26.5085C22.6212 26.5085 25.1887 27.0888 27.5186 28.1337C29.4242 28.9885 31.162 30.1543 32.6686 31.5667C34.1737 30.1545 35.9114 28.9885 37.817 28.1337C40.147 27.0891 42.7153 26.5085 45.4039 26.5085C45.989 26.5085 46.6017 26.5413 47.2406 26.6037C47.8835 26.6668 48.4899 26.7564 49.0592 26.8701C49.5872 26.9764 50.0472 27.3558 50.2317 27.9076C50.5539 28.867 50.8025 29.8666 50.9703 30.9006C51.1358 31.9196 51.2229 32.9495 51.2229 33.9814C51.2229 38.4505 49.6822 42.5615 47.1068 45.8031ZM26.9731 48.7327C26.9597 48.654 26.947 48.5747 26.9335 48.4954C26.7673 47.4763 26.681 46.4464 26.681 45.4146C26.681 43.0365 27.1236 40.7483 27.9311 38.6307C28.5866 36.9097 29.4844 35.3108 30.5801 33.8767C29.3181 32.6882 27.8622 31.7088 26.2669 30.9934C24.3415 30.1299 22.1984 29.6505 19.9318 29.6505C19.3333 29.6505 18.7624 29.6808 18.2209 29.7401C17.9502 29.7698 17.685 29.8057 17.4253 29.8473C17.2852 30.3678 17.1719 30.899 17.0856 31.4377C16.9558 32.2457 16.8885 33.0948 16.8885 33.9814C16.8885 37.7791 18.2122 41.2583 20.4163 43.9727C22.1359 46.0898 24.3906 47.7471 26.9731 48.7327Z" fill="#F59E0B" fill-opacity="0.933333"/>
</svg>
