<svg width="98" height="15" viewBox="0 0 98 15" fill="none" xmlns="http://www.w3.org/2000/svg">
<path d="M0.949219 0.90559H5.49232V10.9752H9.25777V14.5568H0.949219V0.90559Z" fill="#E5930A"/>
<path d="M9.98234 0.90559H18.0249V4.48725H14.3413V6.00178H17.9635V9.39924H14.3413V10.9752H18.1681V14.5568H9.98234V0.90559Z" fill="#E5930A"/>
<path d="M27.7928 5.55151C27.5472 5.3332 27.2402 5.16947 26.8719 5.06031C26.5035 4.93751 26.142 4.87611 25.7873 4.87611C25.3916 4.87611 25.0301 4.95116 24.7027 5.10125C24.3752 5.23769 24.0887 5.43554 23.8432 5.69478C23.6112 5.94038 23.427 6.24056 23.2906 6.59531C23.1542 6.95007 23.086 7.33211 23.086 7.74144C23.086 8.15077 23.161 8.53282 23.3111 8.88757C23.4611 9.24233 23.6658 9.54933 23.925 9.80857C24.1842 10.0542 24.4844 10.252 24.8254 10.4021C25.1802 10.5385 25.5553 10.6068 25.951 10.6068C26.4148 10.6068 26.8378 10.5113 27.2198 10.3202C27.6018 10.1156 27.9292 9.84268 28.2021 9.50157H26.9742V6.63624H32.2336V11.1798C31.9198 11.7393 31.5446 12.2509 31.108 12.7148C30.6714 13.1651 30.1803 13.554 29.6346 13.8814C29.1025 14.2089 28.5227 14.4613 27.8951 14.6387C27.2675 14.8161 26.6195 14.9048 25.951 14.9048C24.9687 14.9048 24.041 14.7206 23.1678 14.3522C22.2947 13.9838 21.5307 13.4789 20.8758 12.8376C20.2346 12.1963 19.723 11.4391 19.341 10.5658C18.9726 9.69259 18.7884 8.75113 18.7884 7.74144C18.7884 6.75904 18.9658 5.83122 19.3205 4.95798C19.6752 4.08474 20.1596 3.32747 20.7735 2.68619C21.4011 2.03125 22.1378 1.51959 22.9836 1.15119C23.8432 0.769147 24.7641 0.578125 25.7463 0.578125C26.5103 0.578125 27.172 0.653169 27.7314 0.803257C28.2908 0.953346 28.7614 1.1239 29.1434 1.31492C29.5937 1.53323 29.9688 1.77201 30.269 2.03125L27.7928 5.55151Z" fill="#E5930A"/>
<path d="M36.8969 0.90559H40.1712L45.3487 14.5568H41.0512L40.601 13.3288H36.4671L36.0169 14.5568H31.7194L36.8969 0.90559ZM39.4549 10.3202L38.534 7.92564L37.6131 10.3202H39.4549Z" fill="#E5930A"/>
<path d="M45.6552 0.90559H50.1983V10.9752H53.9637V14.5568H45.6552V0.90559Z" fill="#E5930A"/>
<path d="M56.5288 4.48725H54.0117V0.90559H63.5481V4.48725H61.031V14.5568H56.5288V4.48725ZM59.046 12.9195V3.03412H61.9724V2.54292H55.5875V3.03412H58.5139V12.9195H59.046Z" fill="#E5930A"/>
<path d="M64.2607 0.90559H72.3032V4.48725H68.6196V6.00178H72.2418V9.39924H68.6196V10.9752H72.4465V14.5568H64.2607V0.90559ZM70.9321 12.9195V12.4283H66.8392V7.94611H70.7275V7.45491H66.8392V3.03412H70.9321V2.54292H66.3072V12.9195H70.9321Z" fill="#E5930A"/>
<path d="M75.6453 7.74144C75.6453 7.08651 75.7545 6.47251 75.9728 5.89945C76.2047 5.32638 76.5253 4.82836 76.9346 4.40538C77.3439 3.98241 77.8418 3.64812 78.4285 3.40252C79.0151 3.15692 79.67 3.03412 80.3931 3.03412C80.7478 3.03412 81.0616 3.06141 81.3344 3.11599C81.6209 3.15692 81.8597 3.2115 82.0507 3.27972C82.2826 3.34794 82.4804 3.42981 82.6442 3.52532L82.9307 3.03412C82.7124 2.93861 82.4804 2.84992 82.2349 2.76805C82.0029 2.69983 81.7369 2.63843 81.4368 2.58385C81.1366 2.52928 80.7887 2.50199 80.3931 2.50199C79.6973 2.50199 79.0288 2.62479 78.3876 2.87039C77.76 3.11599 77.2006 3.47074 76.7095 3.93465C76.232 4.38492 75.8432 4.93751 75.543 5.59245C75.2565 6.23373 75.1133 6.95007 75.1133 7.74144C75.1133 8.54646 75.2497 9.26961 75.5225 9.9109C75.809 10.5522 76.1979 11.1048 76.689 11.5687C77.1802 12.019 77.7532 12.3669 78.408 12.6125C79.0629 12.8581 79.7587 12.9809 80.4954 12.9809C80.9047 12.9809 81.273 12.9468 81.6005 12.8786C81.9279 12.8103 82.2076 12.7353 82.4395 12.6534C82.6987 12.5579 82.9307 12.4488 83.1353 12.326L82.8488 11.8348C82.6714 11.9576 82.4668 12.0599 82.2349 12.1418C82.0302 12.2236 81.7847 12.2987 81.4982 12.3669C81.2117 12.4215 80.8774 12.4488 80.4954 12.4488C79.745 12.4488 79.0697 12.326 78.4694 12.0804C77.8691 11.8348 77.3575 11.5005 76.9346 11.0775C76.5253 10.6545 76.2047 10.1565 75.9728 9.58344C75.7545 9.01037 75.6453 8.39637 75.6453 7.74144ZM73.0668 7.74144C73.0668 6.64989 73.2578 5.66749 73.6398 4.79425C74.0218 3.90736 74.5403 3.1501 75.1951 2.52245C75.85 1.89481 76.614 1.41726 77.4871 1.08979C78.3603 0.74868 79.288 0.578125 80.2703 0.578125C81.0479 0.578125 81.7369 0.653169 82.3372 0.803257C82.9511 0.953346 83.4764 1.1239 83.913 1.31492C84.4177 1.53323 84.8543 1.77201 85.2227 2.03125L83.0739 5.81758C82.8556 5.65385 82.6169 5.49694 82.3577 5.34685C82.1257 5.23769 81.8461 5.13536 81.5186 5.03985C81.2048 4.93069 80.8433 4.87611 80.434 4.87611C80.0111 4.87611 79.6222 4.95116 79.2675 5.10125C78.9128 5.25134 78.599 5.456 78.3262 5.71525C78.067 5.97449 77.8623 6.28149 77.7122 6.63624C77.5622 6.97735 77.4871 7.34575 77.4871 7.74144C77.4871 8.13713 77.5622 8.51235 77.7122 8.8671C77.876 9.20821 78.0942 9.50839 78.3671 9.76764C78.64 10.0269 78.9606 10.2315 79.3289 10.3816C79.6973 10.5317 80.0998 10.6068 80.5363 10.6068C80.9729 10.6068 81.3617 10.5522 81.7028 10.443C82.0439 10.3339 82.3304 10.2111 82.5623 10.0746C82.8352 9.92455 83.0739 9.74717 83.2786 9.5425L85.4273 13.3288C85.059 13.629 84.6224 13.8951 84.1176 14.127C83.681 14.318 83.1558 14.4954 82.5418 14.6592C81.9279 14.8229 81.2253 14.9048 80.434 14.9048C79.3699 14.9048 78.3876 14.7342 77.4871 14.3931C76.5867 14.0383 75.809 13.5471 75.1542 12.9195C74.4993 12.2919 73.9877 11.5414 73.6194 10.6682C73.251 9.78128 73.0668 8.80571 73.0668 7.74144Z" fill="#E5930A"/>
<path d="M85.9442 0.90559H90.3031V5.55151H92.7384V0.90559H97.1178V14.5568H92.7384V9.50157H90.3031V14.5568H85.9442V0.90559ZM88.5227 12.9195V7.74144H94.5393V12.9195H95.0713V2.54292H94.5393V7.25024H88.5227V2.54292H87.9907V12.9195H88.5227Z" fill="#E5930A"/>
</svg>
